<svg xmlns="http://www.w3.org/2000/svg" viewBox="0 0 358 358" xml:space="preserve"><path d="M179 0a179 179 0 1 0 1 359 179 179 0 0 0-1-359zm-24 255c-1-3 3-15 5-23 3-10 7-21 8-30l4-15 4-8c3-6 17-12 25-15l10-5c7-5 7-10 6-12-2-7-12-9-20-10-15-1-34-17-40-29-2-6-2-11-1-14a41 41 0 0 0 17-2c2 0 5 6 7 9 2 6 6 13 12 16 7 5 16 6 22 7l7 2h3c8 0 13-8 16-24h23c2 1 4 11 2 22v2l1 1c0 1 6 16 14 26 3 4 8 7 12 7 5 0 9-2 12-4l3-2c8-4 5-14 4-21l-1-6v-18c2-1 6-3 18-5a167 167 0 1 1-311 37c1 0 4 0 7 2 10 4 20 20 24 27 0 1 11 18 20 29l5 5c7 8 12 13 16 23l5 21c2 11 4 23 9 29 4 4 8 6 12 6l9-2 9-2c8 0 16-4 20-11 3-4 3-9 2-13zm24-243c61 0 114 32 144 81-20 4-25 8-25 13v21l2 9 1 8-3 2-6 2-3-2c-5-7-10-18-12-22 1-9 2-32-12-34h-16l-6 1-2-4c0-4-3-6-6-6-5 0-6 4-6 13-1 13-4 19-5 21l-8-2c-6-1-13-2-18-6-3-1-6-6-8-11-4-7-8-15-17-15h-4l-8 1-6-1-6-2-2 5c-1 0-7 14 0 29a69 69 0 0 0 56 37l-7 3c-12 5-26 11-30 21l-4 6c-2 4-4 7-6 20l-7 28c-5 18-7 26-5 31l-1 3c-2 3-5 5-10 5-6 0-10 2-13 3l-5 1-3-2c-3-4-5-14-6-23-2-9-3-18-6-24-5-12-11-18-18-25l-5-6c-9-10-19-27-19-27-2-3-14-26-29-32l-10-3C41 61 104 12 179 12z" fill="#030303"/></svg>